<?xml version="1.0" encoding="UTF-8" standalone="no"?>
<!-- Created with Inkscape (http://www.inkscape.org/) -->

<svg
   version="1.1"
   id="svg2"
   width="946.38745"
   height="488.31476"
   viewBox="0 0 946.38745 488.31477"
   xmlns="http://www.w3.org/2000/svg"
   xmlns:svg="http://www.w3.org/2000/svg">
  <defs
     id="defs6">
    <clipPath
       clipPathUnits="userSpaceOnUse"
       id="clipPath18">
      <path
         d="M 0,2020 H 1200 V 0 H 0 Z"
         id="path16" />
    </clipPath>
  </defs>
  <g
     id="g10"
     transform="matrix(1.3333333,0,0,-1.3333333,-307.9166,1947.074)">
    <g
       id="g12"
       transform="translate(10.507619,-4.1836434)">
      <g
         id="g14"
         clip-path="url(#clipPath18)">
        <g
           id="g20"
           transform="translate(227.4262,1116.1677)">
          <path
             d="m 0,0 c -2.921,2.824 -3.524,7.507 -3.84,11.685 -3.889,51.366 -5.902,103.496 4.439,153.961 8.483,41.399 25.911,82.02 54.634,113.467 27.238,29.826 67.508,52.272 108.071,34.994 29.069,-12.383 49.041,-43.552 48.143,-75.136 33.924,-10.075 72.689,7.215 104.966,-7.29 29.069,-13.066 41.87,-46.801 50.066,-77.599 1.663,-6.245 4.083,-13.444 10.212,-15.491 7.371,-2.461 14.904,4.902 16.199,12.565 1.292,7.661 -1.46,15.338 -3.019,22.949 -8.629,42.079 26.111,87.658 68.971,90.49 7.025,0.465 14.428,0.02 20.704,3.207 14.096,7.154 14.196,26.687 19.368,41.62 11.131,32.127 52.57,45.745 85.018,35.596 32.449,-10.15 56.47,-37.732 73.949,-66.895 43.226,-72.121 56.102,-161.798 34.915,-243.166 -0.967,-3.72 -2.186,-7.697 -5.261,-9.999 -3.33,-2.491 -7.879,-2.321 -12.026,-2.041 -43.504,2.936 -87.269,5.911 -129.621,16.274 -42.355,10.363 -83.651,28.601 -115.326,58.566 -5.298,5.011 -10.54,10.482 -17.369,13.037 -6.833,2.556 -15.843,1.094 -19.333,-5.311 -3.253,-5.971 -0.565,-13.35 2.549,-19.394 20.989,-40.736 61.592,-70.787 106.685,-78.957 5.439,-0.987 11.135,-1.747 15.739,-4.807 4.602,-3.061 7.68,-9.288 5.229,-14.242 -2.819,-5.699 -10.588,-6.378 -16.924,-5.853 -41.353,3.435 -80.029,25.135 -108.178,55.622 -28.148,30.487 -46.321,69.234 -56.635,109.427 -4.319,16.828 -7.548,34.503 -17.429,48.795 -3.132,4.527 -7.211,8.829 -12.552,10.162 -5.341,1.333 -11.971,-1.494 -13.06,-6.89 -0.63,-3.13 0.635,-6.286 1.711,-9.293 C 313.458,155.208 301.46,114.92 277.583,86.646 253.705,58.373 219.611,40.562 184.721,28.223 129.178,8.577 70.055,1.178 11.253,-2.505 7.721,-2.727 3.882,-2.854 0.989,-0.818 0.633,-0.568 0.304,-0.292 0,0"
             style="fill:#000000;fill-opacity:1;fill-rule:evenodd;stroke:none"
             id="path22" />
        </g>
      </g>
    </g>
  </g>
</svg>
